<?xml version="1.0" encoding="UTF-8" standalone="no"?>
<!-- Created with Inkscape (http://www.inkscape.org/) -->

<svg
   version="1.1"
   id="svg1"
   width="1365.3333"
   height="1365.3333"
   viewBox="0 0 1365.3333 1365.3333"
   xmlns="http://www.w3.org/2000/svg"
   xmlns:svg="http://www.w3.org/2000/svg">
  <defs
     id="defs1" />
  <g
     id="g1"
     transform="matrix(1.2853063,0,0,1.2853063,-192.17004,-186.78146)"
     style="display:inline">
    <path
       style="display:inline;fill:#1db1b3;fill-opacity:1;stroke-width:2.99797"
       d="m 665.63324,1127.9862 c -2.42062,-83.5501 -4.43547,-103.6798 -12.52834,-125.1652 -17.79912,-47.25408 -66.25339,-87.86374 -116.99539,-98.05419 -12.19192,-2.44849 -16.92255,-2.31456 -20.4076,0.57778 -3.85712,3.20112 -1.91944,5.00289 12.93551,12.02817 31.24896,14.77842 56.92263,33.00355 76.92303,54.60582 10.78601,11.64989 20.37685,24.70438 21.31298,29.01002 0.93614,4.3056 3.89113,12.1596 6.56665,17.4534 2.67552,5.2938 4.04608,10.4435 3.04569,11.4439 -1.0004,1.0004 -8.39523,-1.5135 -16.43297,-5.5866 -8.03775,-4.073 -24.6982,-10.3478 -37.02324,-13.9439 -12.32503,-3.5961 -31.85276,-9.2898 -43.39495,-12.65271 -11.54218,-3.36288 -32.82096,-12.2501 -47.28617,-19.74938 -21.12542,-10.95218 -31.26636,-18.78648 -51.53871,-39.81583 -22.08809,-22.91289 -27.47925,-30.8006 -43.19161,-63.1928 -18.85667,-38.87446 -29.39792,-74.81326 -32.29338,-110.09936 l -1.6288,-19.84976 5.85082,8.99391 c 10.30626,15.84284 40.64796,42.13187 58.1514,50.38427 9.33694,4.40212 38.3423,14.18769 64.45635,21.74572 80.80667,23.38737 102.5005,33.75127 126.98612,60.66568 18.90131,20.77619 33.40262,48.68756 40.4821,77.91785 3.0847,12.73638 6.6724,21.3863 8.60624,20.74969 5.71986,-1.88293 8.96294,-40.42516 5.5663,-66.15226 -2.40968,-18.25142 -5.17284,-26.56496 -12.09216,-36.38147 l -8.96878,-12.72411 17.64991,-1.84478 c 18.31772,-1.91458 53.6664,0.55115 53.57097,3.73682 -0.03,1.00177 -3.99315,7.63279 -8.80699,14.7356 -12.09201,17.84171 -20.92373,46.1349 -24.19568,77.51305 -2.80775,26.926 -0.902,66.96617 3.18729,66.96617 2.59771,0 2.13482,1.1163 19.89063,-47.96752 18.4552,-51.01728 29.07962,-70.26954 50.56691,-91.63115 21.23852,-21.11431 59.59872,-42.1028 109.31091,-59.80867 60.95248,-21.70928 94.17169,-42.82396 117.37784,-74.60723 l 8.5369,-11.6922 -0.0649,13.19118 c -0.0852,17.31315 -9.37282,58.48092 -19.54673,86.64145 -18.62057,51.54007 -41.85832,88.48899 -75.77354,120.48291 -25.55425,24.10658 -48.41356,37.68623 -105.47885,62.65993 -29.68278,12.9902 -47.51179,22.7422 -56.21193,30.7464 -13.99099,12.8718 -14.95942,12.003 -8.14609,-7.308 12.53907,-35.5395 61.34842,-92.146 103.68309,-120.24613 17.38718,-11.54097 25.5713,-19.44009 22.90449,-22.10689 -0.87022,-0.87023 -12.40434,1.92109 -25.63136,6.20293 -47.3943,15.34243 -92.59683,55.87208 -115.58313,103.63449 -18.31694,38.0601 -25.04058,67.0943 -27.38073,118.2364 -1.41762,30.9806 -3.18841,43.9343 -6.76211,49.4665 -4.86528,7.5318 -12.66447,14.717 -16.16712,14.8946 -1.03466,0.052 -2.84855,-33.2946 -4.03089,-74.1045 z"
       id="path20610" />
    <path
       style="fill:#f07b96;fill-opacity:1;stroke-width:2.99797"
       d="m 622.07424,432.26132 c -17.66915,-20.26192 -67.60181,-48.11243 -100.67558,-56.15294 -1.78536,-0.43404 -6.31268,-10.02441 -10.06072,-21.31194 -6.12411,-18.44326 -14.78199,-36.75959 -27.31777,-57.79263 -2.38973,-4.00958 -7.71767,-10.37511 -11.83988,-14.14562 -6.96187,-6.36788 -7.06848,-6.86045 -1.49899,-6.92561 16.86463,-0.19728 59.53348,6.5487 76.59076,12.10907 40.11325,13.07619 86.59416,38.99002 105.35026,58.73442 l 8.05876,8.48338 -10.30789,20.98579 c -9.59911,19.54276 -15.80101,36.70893 -18.38998,50.90138 -1.65649,9.08071 -4.96242,10.78712 -9.90897,5.1147 z"
       id="path20616" />
    <path
       style="fill:#f07b96;fill-opacity:1;stroke-width:2.99797"
       d="m 668.1047,586.10315 c -9.09418,-17.40724 -17.14309,-67.34877 -15.10991,-93.7533 2.42434,-31.48445 10.70731,-69.13617 16.96798,-77.13099 1.29122,-1.64889 3.37464,-6.33714 4.62982,-10.41833 4.00371,-13.01803 30.89319,-49.07213 47.16987,-63.24657 37.90876,-33.0126 92.30991,-56.9461 142.51485,-62.69867 31.01406,-3.55364 39.19807,-3.72828 35.03625,-0.74766 -12.77512,9.14931 -32.16965,42.86263 -43.29857,75.26545 l -7.58946,22.09739 -18.08382,6.51878 c -36.26975,13.07437 -78.40758,44.39022 -102.16515,75.92676 -23.62024,31.35424 -48.60216,86.94058 -54.76309,121.85132 -1.9216,10.88869 -2.54284,11.63011 -5.30877,6.33582 z"
       id="path20617" />
    <path
       style="fill:#f07b96;fill-opacity:1;stroke-width:2.99797"
       d="m 811.55924,778.04728 c -43.21011,-13.48975 -74.66581,-42.75162 -90.31621,-84.01721 -17.75925,-46.82605 -8.94558,-125.26778 20.72452,-184.44829 32.30009,-64.42635 81.14691,-104.87428 148.42956,-122.90807 32.57176,-8.73022 106.42794,-12.21515 106.42794,-5.02184 0,2.61045 -2.99835,6.8464 -6.66301,9.41323 -3.66465,2.56682 -5.70473,4.66695 -4.53351,4.66695 1.17122,0 -1.69278,7.0827 -6.36446,15.73934 -12.3146,22.81904 -27.36342,73.85221 -27.39185,92.89057 l -0.0167,11.19589 -32.22818,-0.51699 c -18.10435,-0.29041 -39.45432,1.20315 -48.71701,3.40806 -38.42678,9.14721 -75.43133,37.74309 -91.42761,70.6522 -11.93159,24.54683 -14.21085,66.62665 -4.93161,91.04763 6.91858,18.20823 17.9104,35.49792 24.08754,37.88871 6.36537,2.46367 6.768,0.30396 1.79994,-9.65473 -13.4581,-26.97741 -11.48527,-65.58966 4.96628,-97.20028 10.79967,-20.7509 26.536,-35.15175 51.92993,-47.52283 16.6504,-8.11153 23.1121,-9.44479 53.72577,-11.08542 l 34.79901,-1.86493 -0.0177,38.68273 c -0.0305,66.62894 -10.93995,114.2638 -34.41684,150.27641 -14.5777,22.36162 -23.18895,34.14517 -24.20806,33.12607 -0.57033,-0.57033 2.18828,-9.92244 6.13025,-20.78244 9.47264,-26.09685 16.53668,-64.30418 16.53668,-89.44217 0,-24.09708 0.14094,-24.01119 -38.97361,-23.75059 -36.14821,0.24083 -37.68944,1.19121 -27.617,17.02957 5.96213,9.37512 11.06888,13.58715 19.15022,15.79503 l 11.02003,3.01073 -1.62141,17.18266 c -2.12537,22.52324 -13.42353,56.5031 -25.09286,75.4682 -10.25908,16.67312 -13.25839,17.58867 -35.19005,10.74181 z"
       id="path20618" />
    <path
       style="display:inline;fill:#f07b96;fill-opacity:1;stroke-width:2.99797"
       d="m 470.41047,763.13253 c -7.96978,-9.13559 -16.43144,-20.32641 -18.80369,-24.86849 -2.37224,-4.54207 -5.43897,-10.28196 -6.81496,-12.75528 -3.66991,-6.59665 -12.01372,-25.00883 -12.90654,-28.48072 -0.42402,-1.64888 -1.54926,-5.0216 -2.50053,-7.49492 -8.50032,-22.10099 -11.69746,-48.2911 -12.99213,-106.42794 -2.13463,-95.85557 -13.19741,-147.68755 -39.92089,-187.03962 l -12.44178,-18.32133 32.33989,0.004 c 52.69737,0.007 97.41251,9.9978 135.23514,30.21687 24.0846,12.87505 54.49817,35.35366 54.49817,40.2795 0,1.71882 2.69817,5.06986 5.99594,7.44675 3.29777,2.3769 5.99594,5.9031 5.99594,7.83601 0,1.9329 1.73225,4.1791 3.84943,4.99154 4.47213,1.71611 15.96684,23.24594 19.96159,37.38845 l 2.75216,9.7434 h -80.40227 -80.40227 l -2.07119,11.0404 c -1.84717,9.84627 0.59847,156.03042 2.92494,174.83375 2.31273,18.69228 7.83279,39.97853 14.83849,57.21964 4.18785,10.3064 7.10596,19.24721 6.48468,19.86848 -0.62128,0.62127 -7.65033,-6.34499 -15.62012,-15.48059 z"
       id="path20619" />
    <path
       style="display:inline;fill:#f89fb1;fill-opacity:1;stroke-width:2.99797"
       d="m 675.34778,321.02163 c -8.07508,-11.52879 -37.35871,-32.97977 -61.35736,-44.94578 -13.51747,-6.73997 -25.99652,-12.25448 -27.73123,-12.25448 -8.81031,0 4.0446,-25.62011 23.5541,-46.94383 13.54826,-14.80814 67.71355,-57.98513 72.74202,-57.98513 4.12546,0 46.66181,31.93055 63.62608,47.76187 15.11099,14.10181 37.78778,45.98857 37.78778,53.13492 0,2.21769 -1.48085,4.03217 -3.29079,4.03217 -8.76259,0 -54.35844,25.76934 -71.65846,40.4991 -31.29107,26.64218 -27.89054,24.95554 -33.67214,16.70116 z"
       id="path20621" />
    <path
       style="display:inline;fill:#f07b96;fill-opacity:1;stroke-width:2.99797"
       d="m 653.55748,842.32116 c -33.95809,-4.31561 -79.60385,-21.90343 -77.0136,-29.67418 0.77265,-2.31794 -0.37548,-3.38111 -2.78423,-2.57819 -6.02404,2.00801 -24.85132,-12.71937 -39.69086,-31.04765 -19.21289,-23.72979 -29.16882,-51.61001 -31.15294,-87.23955 l -1.62775,-29.2302 h 27.22251 c 14.97237,0 30.63799,-1.29857 34.81246,-2.8857 7.07684,-2.69061 25.77805,-24.84777 25.77805,-30.54178 0,-1.40149 -19.56175,-2.54816 -43.47057,-2.54816 h -43.47056 v -38.97362 -38.97361 h 62.74323 c 50.16683,0 63.59548,0.85225 66.99506,4.25184 2.36644,2.36644 5.88177,16.65743 7.92755,32.22818 6.75599,51.42072 20.62998,101.1657 36.39941,130.5095 23.53007,43.78484 75.48844,85.87236 114.05634,92.38836 21.68573,3.66378 11.99029,12.8793 -26.69836,25.3768 -34.0674,11.0047 -70.48487,13.96306 -110.02574,8.93796 z"
       id="path20622" />
  </g>
</svg>
